<?xml version="1.0" encoding="UTF-8"?>
<!DOCTYPE svg PUBLIC "-//W3C//DTD SVG 1.1//EN" "http://www.w3.org/Graphics/SVG/1.1/DTD/svg11.dtd">
<!-- Creator: CorelDRAW -->
<svg xmlns="http://www.w3.org/2000/svg" xml:space="preserve" width="5.82677in" height="8.26772in" version="1.1" shape-rendering="geometricPrecision" text-rendering="geometricPrecision" image-rendering="optimizeQuality" fill-rule="evenodd" clip-rule="evenodd"
viewBox="0 0 5826.77 8267.72"
 xmlns:xlink="http://www.w3.org/1999/xlink"
 xmlns:xodm="http://www.corel.com/coreldraw/odm/2003">
 <g id="Layer_x0020_1">
  <metadata id="CorelCorpID_0Corel-Layer"/>
  <path id="Cloth_Logo" fill="#F3F3F3" stroke="#F3F3F3" stroke-width="6.94" stroke-miterlimit="2.61313" d="M2739.44 1752.86c-24.16,8.63 -54.53,18.29 -92.15,27.27 -37.62,8.97 -82.49,17.26 -123.91,21.06 -41.42,3.8 -79.39,3.1 -125.63,-2.76 -46.25,-5.87 -100.78,-16.91 -138.74,-28.65 -37.96,-11.74 -59.37,-24.16 -74.9,-31.06 -15.53,-6.91 -25.19,-8.28 -35.89,-6.56 -10.7,1.72 -22.43,6.56 -67.3,23.13 -44.87,16.57 -122.87,44.87 -181.89,67.99 -59.02,23.13 -99.06,41.07 -150.83,66.27 -51.77,25.19 -115.28,57.64 -166.7,86.98 -51.43,29.33 -90.77,55.56 -134.94,88.7 -44.18,33.13 -93.19,73.17 -141.16,113.21 -47.98,40.04 -94.92,80.07 -145.31,121.14 -50.39,41.07 -104.23,83.18 -157.73,124.25 -53.5,41.07 -106.65,81.11 -137.02,105.61 -30.37,24.5 -37.96,33.48 -41.76,37.97 -3.8,4.48 -3.8,4.48 32.44,62.12 36.24,57.64 108.72,172.92 172.57,270.59 63.85,97.67 119.07,177.75 146.69,217.78 27.61,40.04 27.61,40.04 57.98,25.89 30.37,-14.15 91.12,-42.45 129.08,-57.98 37.96,-15.53 53.15,-18.3 63.16,-19.67 10.01,-1.38 14.84,-1.38 16.57,22.78 1.72,24.16 0.35,72.48 -0.69,398.29 -1.04,325.81 -1.73,929.12 -2.07,1230.77 -0.35,301.65 -0.35,301.65 12.08,302 12.43,0.35 37.27,1.04 380.69,0.69 343.41,-0.35 1005.39,-1.72 1336.38,-2.42 330.99,-0.69 330.99,-0.69 331.33,-10.35 0.35,-9.66 1.04,-28.99 0,-361.02 -1.04,-332.02 -3.8,-976.74 -5.18,-1299.1 -1.38,-322.36 -1.38,-322.36 3.11,-321.67 4.49,0.69 13.46,2.07 41.76,14.15 28.3,12.08 75.93,34.86 120.11,56.26 44.18,21.4 84.91,41.42 105.27,51.43 20.37,10.01 20.37,10.01 51.08,-35.89 30.72,-45.91 92.15,-137.71 150.83,-229.86 58.67,-92.15 114.58,-184.65 145.65,-237.11 31.06,-52.46 37.28,-64.89 40.38,-71.1 3.11,-6.21 3.11,-6.21 -64.89,-60.74 -67.99,-54.53 -203.98,-163.6 -299.93,-241.25 -95.95,-77.66 -151.86,-123.91 -190.17,-155.66 -38.31,-31.75 -59.02,-49.01 -90.43,-68.69 -31.41,-19.67 -73.51,-41.76 -109.06,-62.47 -35.55,-20.71 -64.54,-40.04 -118.73,-65.57 -54.19,-25.54 -133.57,-57.3 -200.52,-83.52 -66.96,-26.23 -121.49,-46.94 -164.63,-62.81 -43.14,-15.88 -74.9,-26.93 -91.81,-33.48 -16.91,-6.56 -18.98,-8.63 -20.36,-9.67 -1.38,-1.04 -2.07,-1.04 -11.39,2.76 -9.32,3.8 -27.26,11.39 -51.43,20.02z"/>
 </g>
</svg>
